<?xml version="1.0" encoding="UTF-8" standalone="no"?><!DOCTYPE svg PUBLIC "-//W3C//DTD SVG 1.1//EN" "http://www.w3.org/Graphics/SVG/1.1/DTD/svg11.dtd"><svg width="100%" height="100%" viewBox="0 0 6667 6667" version="1.1" xmlns="http://www.w3.org/2000/svg" xmlns:xlink="http://www.w3.org/1999/xlink" xml:space="preserve" xmlns:serif="http://www.serif.com/" style="fill-rule:evenodd;clip-rule:evenodd;stroke-linecap:round;stroke-linejoin:round;stroke-miterlimit:1.5;"><rect x="0" y="0" width="6666.67" height="6666.67" style="fill:#eeeed2;"/><path d="M3477.67,750l2211.32,0c28.83,-49.799 82.7,-83.333 144.339,-83.333c91.986,-0 166.667,74.68 166.667,166.666c0,61.64 -33.534,115.509 -83.333,144.34l-0,2211.32c49.799,28.83 83.333,82.7 83.333,144.339c0,61.64 -33.534,115.509 -83.333,144.34l-0,2211.32c49.799,28.83 83.333,82.7 83.333,144.339c0,91.986 -74.681,166.667 -166.667,166.667c-61.639,-0 -115.509,-33.534 -144.339,-83.333l-2211.32,-0c-28.831,49.799 -82.7,83.333 -144.34,83.333c-61.639,-0 -115.509,-33.534 -144.339,-83.333l-2211.32,-0c-28.831,49.799 -82.7,83.333 -144.34,83.333c-91.986,-0 -166.666,-74.681 -166.666,-166.667c-0,-61.639 33.534,-115.509 83.333,-144.339l-0,-2211.32c-49.799,-28.831 -83.333,-82.7 -83.333,-144.34c-0,-61.639 33.534,-115.509 83.333,-144.339l-0,-2211.32c-49.799,-28.831 -83.333,-82.7 -83.333,-144.34c-0,-91.986 74.68,-166.666 166.666,-166.666c61.64,-0 115.509,33.534 144.34,83.333l2211.32,-0c28.83,-49.799 82.7,-83.333 144.339,-83.333c61.64,-0 115.509,33.534 144.34,83.333Zm-1666.67,4333.33c-28.83,49.799 -82.7,83.334 -144.339,83.334c-91.986,-0 -166.667,-74.681 -166.667,-166.667c0,-61.64 33.534,-115.509 83.333,-144.339l0,-1377.99c-25.278,-14.635 -46.365,-35.72 -61.006,-61.006l-544.654,-0c-14.635,25.278 -35.72,46.365 -61.006,61.006l-0,2211.32c25.278,14.634 46.365,35.72 61.006,61.006l2211.32,-0c14.634,-25.278 35.72,-46.365 61.006,-61.006l-0,-544.655c-25.278,-14.634 -46.365,-35.72 -61.006,-61.006l-1377.99,0Zm3333.33,-1666.67c-14.634,25.278 -35.72,46.365 -61.006,61.006l0,1377.99c49.799,28.83 83.334,82.699 83.334,144.339c-0,91.986 -74.681,166.667 -166.667,166.667c-61.64,-0 -115.509,-33.535 -144.339,-83.334l-1377.99,0c-14.635,25.278 -35.72,46.366 -61.006,61.006l-0,544.655c25.278,14.634 46.365,35.72 61.006,61.006l2211.32,-0c14.634,-25.278 35.72,-46.365 61.006,-61.006l0,-2211.32c-25.278,-14.635 -46.365,-35.72 -61.006,-61.006l-544.655,-0Zm-833.333,-0c-14.634,25.278 -35.72,46.365 -61.006,61.006l0,544.654c49.799,28.831 83.333,82.7 83.333,144.34c0,91.986 -74.68,166.666 -166.666,166.666c-61.64,0 -115.509,-33.534 -144.34,-83.333l-544.654,0c-14.635,25.278 -35.72,46.365 -61.006,61.006l-0,544.655c25.278,14.634 46.365,35.72 61.006,61.006l1377.99,-0c14.634,-25.278 35.72,-46.366 61.006,-61.006l-0,-1377.99c-25.278,-14.635 -46.366,-35.72 -61.006,-61.006l-544.655,-0Zm-1666.67,833.333c-28.83,49.799 -82.699,83.333 -144.339,83.333c-91.986,0 -166.667,-74.68 -166.667,-166.666c0,-61.64 33.535,-115.509 83.334,-144.34l-0,-544.654c-25.278,-14.635 -46.366,-35.72 -61.006,-61.006l-544.655,-0c-14.634,25.278 -35.72,46.365 -61.006,61.006l0,1377.99c25.278,14.634 46.365,35.72 61.006,61.006l1377.99,-0c14.634,-25.278 35.72,-46.366 61.006,-61.006l0,-544.655c-25.278,-14.634 -46.365,-35.72 -61.006,-61.006l-544.655,0Zm1377.99,-1666.67c14.641,25.286 35.728,46.372 61.006,61.006l0,544.655c-49.799,28.83 -83.333,82.7 -83.333,144.339c0,61.64 33.534,115.509 83.333,144.34l0,544.654c-25.286,14.641 -46.371,35.728 -61.006,61.006l-544.654,0c-28.831,-49.799 -82.7,-83.333 -144.34,-83.333c-61.639,0 -115.509,33.534 -144.339,83.333l-544.655,0c-14.64,-25.286 -35.728,-46.371 -61.006,-61.006l0,-544.654c49.799,-28.831 83.334,-82.7 83.334,-144.34c-0,-61.639 -33.535,-115.509 -83.334,-144.339l0,-544.655c25.286,-14.64 46.372,-35.728 61.006,-61.006l544.655,0c28.83,49.799 82.7,83.334 144.339,83.334c61.64,-0 115.509,-33.535 144.34,-83.334l544.654,0Zm-772.327,-1061.01l0,-544.654c-25.278,-14.635 -46.365,-35.72 -61.006,-61.006l-2211.32,-0c-14.635,25.278 -35.72,46.365 -61.006,61.006l-0,2211.32c25.278,14.634 46.365,35.72 61.006,61.006l544.654,0c14.635,-25.278 35.72,-46.365 61.006,-61.006l0,-1377.99c-49.799,-28.83 -83.333,-82.7 -83.333,-144.339c0,-91.986 74.681,-166.667 166.667,-166.667c61.639,0 115.509,33.534 144.339,83.333l1377.99,0c14.634,-25.278 35.72,-46.365 61.006,-61.006Zm0,833.334l0,-544.655c-25.278,-14.634 -46.365,-35.72 -61.006,-61.006l-1377.99,0c-14.634,25.278 -35.72,46.365 -61.006,61.006l0,1377.99c25.278,14.634 46.365,35.72 61.006,61.006l544.655,0c14.634,-25.278 35.72,-46.365 61.006,-61.006l-0,-544.655c-49.799,-28.83 -83.334,-82.699 -83.334,-144.339c0,-91.986 74.681,-166.667 166.667,-166.667c61.64,0 115.509,33.535 144.339,83.334l544.655,-0c14.634,-25.278 35.72,-46.366 61.006,-61.006Zm1894.34,894.339l544.655,0c14.634,-25.278 35.72,-46.365 61.006,-61.006l0,-2211.32c-25.278,-14.635 -46.365,-35.72 -61.006,-61.006l-2211.32,-0c-14.635,25.278 -35.72,46.365 -61.006,61.006l-0,544.654c25.278,14.635 46.365,35.72 61.006,61.006l1377.99,0c28.83,-49.799 82.699,-83.333 144.339,-83.333c91.986,-0 166.667,74.681 166.667,166.667c-0,61.639 -33.535,115.509 -83.334,144.339l0,1377.99c25.278,14.634 46.366,35.72 61.006,61.006Zm-833.333,0l544.655,0c14.634,-25.278 35.72,-46.365 61.006,-61.006l-0,-1377.99c-25.278,-14.634 -46.366,-35.72 -61.006,-61.006l-1377.99,0c-14.635,25.278 -35.72,46.365 -61.006,61.006l-0,544.655c25.278,14.634 46.365,35.72 61.006,61.006l544.654,-0c28.831,-49.799 82.7,-83.334 144.34,-83.334c91.986,0 166.666,74.681 166.666,166.667c0,61.64 -33.534,115.509 -83.333,144.339l0,544.655c25.278,14.634 46.365,35.72 61.006,61.006Z" style="fill:#769656;stroke:#464646;stroke-width:83.33px;"/><g><g><path d="M226.89,5689.83l0,287l-51.99,0l-0,-236.41l-1.682,-0l-67.125,42.882l-0,-47.647l71.329,-45.825l49.468,0Z" style="fill:#464646;fill-rule:nonzero;"/><path d="M68.931,5145.5l-0,-37.566l99.663,-97.701c9.532,-9.626 17.475,-18.176 23.83,-25.652c6.354,-7.476 11.12,-14.718 14.297,-21.727c3.178,-7.009 4.766,-14.485 4.766,-22.428c0,-9.064 -2.056,-16.844 -6.167,-23.339c-4.112,-6.494 -9.766,-11.517 -16.961,-15.068c-7.196,-3.551 -15.373,-5.327 -24.531,-5.327c-9.438,0 -17.708,1.939 -24.81,5.817c-7.103,3.879 -12.593,9.369 -16.471,16.471c-3.878,7.102 -5.817,15.559 -5.817,25.371l-49.481,0c-0,-18.222 4.158,-34.062 12.475,-47.519c8.317,-13.456 19.788,-23.876 34.413,-31.258c14.624,-7.383 31.422,-11.074 50.392,-11.074c19.251,0 36.165,3.598 50.743,10.793c14.578,7.196 25.909,17.055 33.992,29.577c8.083,12.522 12.125,26.82 12.125,42.893c-0,10.747 -2.056,21.306 -6.168,31.679c-4.111,10.373 -11.33,21.867 -21.657,34.483c-10.326,12.615 -24.787,27.894 -43.383,45.837l-49.481,50.322l-0,1.962l125.034,0l0,43.454l-196.803,0Z" style="fill:#464646;fill-rule:nonzero;"/><path d="M165.966,4314.17c-20.19,-0 -38.114,-3.459 -53.77,-10.376c-15.657,-6.917 -28.019,-16.544 -37.086,-28.883c-9.066,-12.338 -13.88,-26.593 -14.441,-42.764l52.719,0c0.467,7.759 3.037,14.512 7.711,20.261c4.674,5.748 10.89,10.211 18.648,13.39c7.758,3.178 16.451,4.767 26.079,4.767c10.282,-0 19.395,-1.8 27.341,-5.398c7.945,-3.599 14.161,-8.623 18.647,-15.073c4.487,-6.45 6.684,-13.881 6.59,-22.293c0.094,-8.693 -2.15,-16.358 -6.73,-22.994c-4.58,-6.637 -11.193,-11.825 -19.839,-15.564c-8.647,-3.739 -19.046,-5.608 -31.197,-5.608l-25.378,-0l0,-40.1l25.378,0c10.002,0 18.765,-1.729 26.289,-5.188c7.525,-3.458 13.437,-8.342 17.737,-14.651c4.299,-6.31 6.403,-13.624 6.309,-21.943c0.094,-8.132 -1.706,-15.213 -5.398,-21.242c-3.692,-6.029 -8.88,-10.726 -15.563,-14.091c-6.683,-3.365 -14.512,-5.047 -23.485,-5.047c-8.787,-0 -16.919,1.589 -24.397,4.767c-7.477,3.178 -13.506,7.688 -18.087,13.53c-4.58,5.842 -7.01,12.782 -7.29,20.821l-50.055,-0c0.374,-16.077 5.024,-30.215 13.951,-42.413c8.926,-12.198 20.867,-21.733 35.823,-28.603c14.956,-6.87 31.734,-10.305 50.335,-10.305c19.162,-0 35.824,3.575 49.985,10.726c14.161,7.15 25.121,16.755 32.879,28.813c7.758,12.058 11.637,25.377 11.637,39.959c0.094,16.171 -4.65,29.725 -14.231,40.661c-9.581,10.936 -22.13,18.087 -37.646,21.452l-0,2.243c20.19,2.804 35.683,10.259 46.479,22.364c10.796,12.104 16.148,27.13 16.054,45.077c0,16.077 -4.557,30.449 -13.67,43.114c-9.114,12.666 -21.639,22.597 -37.576,29.795c-15.937,7.197 -34.188,10.796 -54.752,10.796Z" style="fill:#464646;fill-rule:nonzero;"/><path d="M55.048,3423.58l-0,-41.34l121.779,-192.408l34.473,0l0,58.858l-21.02,-0l-81.98,129.906l-0,2.243l169.986,-0l-0,42.741l-223.238,0Zm136.913,53.252l0,-65.864l0.561,-18.498l-0,-202.638l49.048,0l-0,287l-49.609,0Z" style="fill:#464646;fill-rule:nonzero;"/><path d="M164.529,2645.5c-18.69,-0 -35.417,-3.528 -50.182,-10.583c-14.765,-7.055 -26.469,-16.751 -35.113,-29.086c-8.644,-12.335 -13.247,-26.446 -13.808,-42.332l50.463,-0c0.934,11.774 6.027,21.376 15.279,28.805c9.251,7.429 20.372,11.144 33.361,11.144c10.186,-0 19.251,-2.336 27.194,-7.009c7.943,-4.672 14.204,-11.167 18.783,-19.484c4.579,-8.317 6.822,-17.802 6.728,-28.455c0.094,-10.84 -2.196,-20.465 -6.868,-28.876c-4.673,-8.41 -11.074,-15.022 -19.204,-19.834c-8.13,-4.813 -17.475,-7.219 -28.035,-7.219c-8.597,-0.094 -17.054,1.495 -25.371,4.766c-8.317,3.27 -14.905,7.569 -19.765,12.896l-46.958,-7.71l14.999,-148.023l166.526,0l-0,43.454l-123.493,-0l-8.27,76.114l1.682,-0c5.327,-6.261 12.849,-11.471 22.568,-15.629c9.719,-4.159 20.372,-6.238 31.96,-6.238c17.381,-0 32.894,4.088 46.537,12.265c13.644,8.177 24.39,19.414 32.24,33.712c7.85,14.297 11.775,30.651 11.775,49.06c-0,18.971 -4.369,35.861 -13.107,50.673c-8.737,14.812 -20.839,26.446 -36.305,34.903c-15.465,8.457 -33.338,12.686 -53.616,12.686Z" style="fill:#464646;fill-rule:nonzero;"/><path d="M169.576,1814.16c-13.74,-0.093 -27.153,-2.5 -40.24,-7.221c-13.086,-4.72 -24.863,-12.431 -35.332,-23.134c-10.469,-10.703 -18.788,-24.957 -24.957,-42.764c-6.169,-17.806 -9.207,-39.889 -9.114,-66.248c0,-24.583 2.618,-46.502 7.852,-65.758c5.234,-19.255 12.759,-35.543 22.574,-48.862c9.814,-13.32 21.662,-23.485 35.542,-30.496c13.881,-7.01 29.421,-10.515 46.62,-10.515c18.04,-0 34.047,3.552 48.021,10.656c13.974,7.103 25.261,16.801 33.86,29.093c8.6,12.291 13.928,26.149 15.984,41.572l-51.176,-0c-2.617,-11.03 -7.968,-19.84 -16.054,-26.43c-8.085,-6.59 -18.297,-9.884 -30.635,-9.884c-19.91,-0 -35.216,8.646 -45.919,25.938c-10.702,17.292 -16.1,41.034 -16.194,71.226l1.963,-0c4.58,-8.226 10.516,-15.283 17.807,-21.171c7.291,-5.889 15.54,-10.446 24.747,-13.671c9.207,-3.225 18.951,-4.837 29.233,-4.837c16.825,0 31.944,4.019 45.357,12.058c13.414,8.039 24.046,19.092 31.898,33.159c7.851,14.068 11.731,30.168 11.637,48.302c0.094,18.881 -4.206,35.823 -12.899,50.826c-8.693,15.002 -20.798,26.803 -36.314,35.402c-15.516,8.6 -33.603,12.853 -54.261,12.759Zm-0.28,-42.062c10.188,-0 19.302,-2.477 27.341,-7.431c8.038,-4.954 14.394,-11.638 19.068,-20.05c4.673,-8.413 6.964,-17.853 6.87,-28.322c0.094,-10.282 -2.126,-19.583 -6.66,-27.902c-4.533,-8.319 -10.772,-14.909 -18.718,-19.769c-7.945,-4.861 -17.012,-7.291 -27.2,-7.291c-7.571,-0 -14.628,1.449 -21.172,4.346c-6.543,2.898 -12.244,6.894 -17.105,11.988c-4.861,5.095 -8.67,10.983 -11.427,17.667c-2.757,6.683 -4.183,13.81 -4.276,21.381c0.093,10.002 2.43,19.209 7.01,27.621c4.58,8.413 10.89,15.143 18.928,20.19c8.039,5.048 17.152,7.572 27.341,7.572Z" style="fill:#464646;fill-rule:nonzero;"/><path d="M88.365,976.833l122.059,-241.595l0,-1.962l-141.678,-0l0,-43.443l195.491,0l-0,44.424l-121.919,242.576l-53.953,0Z" style="fill:#464646;fill-rule:nonzero;"/></g><g><path d="M755.628,6601.83l-55.495,0l101.039,-287l64.183,0l101.178,287l-55.494,0l-76.655,-228.142l-2.242,-0l-76.514,228.142Zm1.821,-112.529l151.348,-0l-0,41.76l-151.348,0l0,-41.76Z" style="fill:#464646;fill-rule:nonzero;"/><path d="M1559.6,6601.83l0,-287l109.867,0c20.741,0 38.001,3.247 51.781,9.74c13.78,6.493 24.103,15.345 30.97,26.556c6.867,11.211 10.3,23.916 10.3,38.117c0,11.678 -2.242,21.651 -6.726,29.919c-4.485,8.268 -10.511,14.971 -18.078,20.11c-7.567,5.138 -16.022,8.828 -25.365,11.071l0,2.802c10.184,0.561 19.97,3.667 29.359,9.319c9.389,5.653 17.073,13.617 23.052,23.894c5.98,10.276 8.969,22.702 8.969,37.276c0,14.855 -3.597,28.191 -10.79,40.009c-7.194,11.818 -18.031,21.137 -32.512,27.957c-14.481,6.82 -32.699,10.23 -54.653,10.23l-116.174,0Zm51.991,-43.442l55.914,-0c18.872,-0 32.489,-3.62 40.85,-10.861c8.362,-7.24 12.543,-16.559 12.543,-27.957c-0,-8.502 -2.102,-16.186 -6.307,-23.052c-4.204,-6.867 -10.183,-12.286 -17.937,-16.256c-7.754,-3.971 -17.003,-5.956 -27.747,-5.956l-57.316,-0l-0,84.082Zm-0,-121.499l51.43,0c8.969,0 17.05,-1.658 24.244,-4.974c7.193,-3.317 12.869,-8.035 17.026,-14.154c4.158,-6.12 6.236,-13.383 6.236,-21.792c0,-11.117 -3.9,-20.273 -11.701,-27.466c-7.801,-7.194 -19.362,-10.791 -34.684,-10.791l-52.551,0l-0,79.177Z" style="fill:#464646;fill-rule:nonzero;"/><path d="M2626.54,6411.64l-52.438,-0c-1.496,-8.6 -4.253,-16.241 -8.273,-22.924c-4.019,-6.684 -9.02,-12.362 -15.002,-17.036c-5.982,-4.674 -12.783,-8.202 -20.401,-10.586c-7.618,-2.383 -15.82,-3.575 -24.606,-3.575c-15.61,-0 -29.444,3.902 -41.502,11.707c-12.058,7.805 -21.499,19.209 -28.322,34.211c-6.824,15.003 -10.236,33.3 -10.236,54.892c0,21.966 3.435,40.451 10.306,55.453c6.87,15.002 16.311,26.313 28.322,33.931c12.011,7.618 25.775,11.427 41.291,11.427c8.6,-0 16.662,-1.145 24.187,-3.435c7.524,-2.291 14.301,-5.679 20.33,-10.166c6.029,-4.486 11.123,-10.001 15.283,-16.544c4.159,-6.543 7.033,-14.021 8.623,-22.434l52.438,0.281c-1.963,13.647 -6.193,26.452 -12.689,38.417c-6.497,11.965 -14.979,22.504 -25.448,31.617c-10.469,9.114 -22.714,16.218 -36.735,21.312c-14.021,5.094 -29.584,7.641 -46.69,7.641c-25.237,0 -47.764,-5.842 -67.58,-17.526c-19.817,-11.684 -35.427,-28.556 -46.83,-50.615c-11.404,-22.06 -17.106,-48.513 -17.106,-79.359c0,-30.939 5.749,-57.415 17.246,-79.428c11.497,-22.013 27.154,-38.861 46.97,-50.546c19.816,-11.684 42.25,-17.526 67.3,-17.526c15.984,0 30.846,2.244 44.587,6.73c13.74,4.487 25.985,11.054 36.735,19.7c10.749,8.646 19.606,19.208 26.569,31.687c6.964,12.479 11.521,26.71 13.671,42.694Z" style="fill:#464646;fill-rule:nonzero;"/><path d="M3312.31,6601.83l-97.253,0l-0,-286.996l99.215,0c28.494,0 52.994,5.723 73.501,17.167c20.506,11.444 36.271,27.863 47.295,49.257c11.024,21.394 16.536,46.992 16.536,76.794c0,29.895 -5.535,55.587 -16.606,77.074c-11.071,21.487 -26.999,37.977 -47.786,49.468c-20.787,11.491 -45.754,17.236 -74.902,17.236Zm-45.263,-44.983l42.741,0c19.992,0 36.668,-3.667 50.028,-11.001c13.359,-7.333 23.402,-18.31 30.129,-32.931c6.726,-14.621 10.089,-32.909 10.089,-54.863c0,-21.954 -3.363,-40.195 -10.089,-54.723c-6.727,-14.527 -16.653,-25.411 -29.779,-32.651c-13.126,-7.24 -29.405,-10.86 -48.837,-10.86l-44.282,-0l-0,197.029Z" style="fill:#464646;fill-rule:nonzero;"/><path d="M4072.78,6601.83l0,-287l186.662,0l0,43.583l-134.671,-0l-0,77.916l125.002,-0l-0,43.582l-125.002,0l-0,78.337l135.792,-0l0,43.582l-187.783,0Z" style="fill:#464646;fill-rule:nonzero;"/><path d="M4908.07,6601.83l0,-287l183.86,0l-0,43.583l-131.869,-0l0,77.916l119.256,-0l0,43.582l-119.256,0l0,121.919l-51.991,0Z" style="fill:#464646;fill-rule:nonzero;"/><path d="M5905.47,6406.46c-2.337,-7.571 -5.538,-14.371 -9.604,-20.4c-4.066,-6.029 -8.927,-11.194 -14.582,-15.494c-5.655,-4.299 -12.128,-7.548 -19.419,-9.744c-7.291,-2.197 -15.236,-3.295 -23.836,-3.295c-15.423,-0 -29.163,3.879 -41.221,11.637c-12.058,7.759 -21.522,19.139 -28.392,34.141c-6.871,15.003 -10.306,33.253 -10.306,54.752c0,21.686 3.412,40.053 10.235,55.102c6.824,15.049 16.311,26.476 28.463,34.281c12.151,7.805 26.266,11.708 42.343,11.708c14.582,-0 27.224,-2.804 37.927,-8.413c10.702,-5.608 18.951,-13.577 24.746,-23.906c5.796,-10.328 8.693,-22.456 8.693,-36.384l11.778,1.823l-77.956,-0l-0,-40.661l116.514,0l-0,34.492c-0,24.583 -5.235,45.848 -15.704,63.795c-10.469,17.947 -24.864,31.757 -43.184,41.432c-18.321,9.674 -39.352,14.511 -63.094,14.511c-26.453,0 -49.658,-5.959 -69.614,-17.876c-19.957,-11.918 -35.52,-28.883 -46.69,-50.896c-11.17,-22.013 -16.755,-48.162 -16.755,-78.447c0,-23.181 3.295,-43.886 9.885,-62.113c6.59,-18.227 15.82,-33.72 27.691,-46.479c11.871,-12.759 25.799,-22.48 41.782,-29.164c15.984,-6.683 33.37,-10.025 52.158,-10.025c15.891,0 30.706,2.314 44.447,6.941c13.74,4.627 25.962,11.193 36.664,19.699c10.703,8.506 19.513,18.601 26.43,30.285c6.917,11.684 11.45,24.584 13.6,38.698l-52.999,-0Z" style="fill:#464646;fill-rule:nonzero;"/></g></g><g><circle cx="833.333" cy="833.333" r="83.333" style="fill:#464646;"/><circle cx="833.333" cy="3333.33" r="83.333" style="fill:#464646;"/><circle cx="833.333" cy="5833.33" r="83.333" style="fill:#464646;"/><circle cx="3333.33" cy="5833.33" r="83.333" style="fill:#464646;"/><circle cx="3333.33" cy="5833.33" r="83.333" style="fill:#464646;"/><circle cx="1666.67" cy="5000" r="83.333" style="fill:#464646;"/><circle cx="3333.33" cy="5000" r="83.333" style="fill:#464646;"/><circle cx="3333.33" cy="4166.67" r="83.333" style="fill:#464646;"/><circle cx="2500" cy="4166.67" r="83.333" style="fill:#464646;"/><circle cx="4166.67" cy="4166.67" r="83.333" style="fill:#464646;"/><circle cx="5000" cy="5000" r="83.333" style="fill:#464646;"/><circle cx="5833.33" cy="5833.33" r="83.333" style="fill:#464646;"/><circle cx="1666.67" cy="3333.33" r="83.333" style="fill:#464646;"/><circle cx="2500" cy="3333.33" r="83.333" style="fill:#464646;"/><circle cx="2500" cy="2500" r="83.333" style="fill:#464646;"/><circle cx="1666.67" cy="1666.67" r="83.333" style="fill:#464646;"/><circle cx="3333.33" cy="2500" r="83.333" style="fill:#464646;"/><circle cx="3333.33" cy="1666.67" r="83.333" style="fill:#464646;"/><circle cx="3333.33" cy="833.333" r="83.333" style="fill:#464646;"/><circle cx="5833.33" cy="833.333" r="83.333" style="fill:#464646;"/><circle cx="5000" cy="1666.67" r="83.333" style="fill:#464646;"/><circle cx="4166.67" cy="2500" r="83.333" style="fill:#464646;"/><circle cx="4166.67" cy="3333.33" r="83.333" style="fill:#464646;"/><circle cx="5000" cy="3333.33" r="83.333" style="fill:#464646;"/><circle cx="5833.33" cy="3333.33" r="83.333" style="fill:#464646;"/></g><path d="M4927.08,2354.17l-135.416,-0l208.333,-208.334l208.333,208.334l-135.416,-0l-0,520.833l-145.834,0l0,-520.833Z" style="fill:#e53e3e;stroke:#000;stroke-width:8.33px;"/><path d="M5072.92,4312.5l135.416,0l-208.333,208.333l-208.333,-208.333l135.416,0l0,-520.833l145.834,-0l-0,520.833Z" style="fill:#e53e3e;stroke:#000;stroke-width:8.33px;"/><path d="M4447.92,3406.25l-0,135.417l-208.334,-208.334l208.334,-208.333l-0,135.417l135.416,-0l0,145.833l-135.416,-0Z" style="fill:#e53e3e;stroke:#000;stroke-width:8.33px;"/><path d="M5552.08,3260.42l0,-135.417l208.334,208.333l-208.334,208.334l0,-135.417l-135.416,-0l-0,-145.833l135.416,-0Z" style="fill:#e53e3e;stroke:#000;stroke-width:8.33px;"/><path d="M5000,3916.67c114.982,-0 208.333,93.351 208.333,208.333c0,114.982 -93.351,208.333 -208.333,208.333c-114.982,0 -208.333,-93.351 -208.333,-208.333c-0,-114.982 93.351,-208.333 208.333,-208.333Zm-116.489,297.345l205.501,-205.501c-24.688,-18.9 -55.548,-30.135 -89.012,-30.135c-80.924,0 -146.624,65.7 -146.624,146.624c0,33.464 11.235,64.324 30.135,89.012Zm234.764,-175.642l-204.905,204.905c24.278,17.82 54.234,28.349 86.63,28.349c80.924,-0 146.624,-65.7 146.624,-146.624c-0,-32.396 -10.529,-62.352 -28.349,-86.63Z" style="fill:#e53e3e;stroke:#000;stroke-width:8.33px;"/><circle cx="3333.33" cy="5833.33" r="316.667" style="fill:#565352;"/><path d="M3466.24,5700.42l200.424,132.91l-71.887,206.698l-117.722,94.098l-143.725,32.538l-132.91,-200.424l207.382,39.741l100.585,-104.014l8.073,-111.302l-50.22,-90.245Z" style="fill-opacity:0.09;"/><path d="M3333.33,5500c183.972,0 333.334,149.362 333.334,333.333c-0,183.972 -149.362,333.334 -333.334,333.334c-183.971,-0 -333.333,-149.362 -333.333,-333.334c0,-183.971 149.362,-333.333 333.333,-333.333Zm0,40c161.895,0 293.334,131.438 293.334,293.333c-0,161.895 -131.439,293.334 -293.334,293.334c-161.895,-0 -293.333,-131.439 -293.333,-293.334c0,-161.895 131.438,-293.333 293.333,-293.333Z" style="fill:#464646;"/><path d="M3333.33,5645.33c103.76,0 188,84.24 188,188c0,103.76 -84.24,188 -188,188c-103.76,0 -188,-84.24 -188,-188c0,-103.76 84.24,-188 188,-188Zm0,37.6c83.008,0 150.4,67.392 150.4,150.4c0,83.008 -67.392,150.4 -150.4,150.4c-83.008,0 -150.4,-67.392 -150.4,-150.4c0,-83.008 67.392,-150.4 150.4,-150.4Z" style="fill:#464646;"/><circle cx="3333.33" cy="4166.67" r="316.667" style="fill:#565352;"/><path d="M3466.24,4033.76l200.424,132.91l-71.887,206.697l-117.722,94.098l-143.725,32.538l-132.91,-200.423l207.382,39.74l100.585,-104.014l8.073,-111.301l-50.22,-90.245Z" style="fill-opacity:0.09;"/><path d="M3333.33,3833.33c183.972,0 333.334,149.362 333.334,333.334c-0,183.971 -149.362,333.333 -333.334,333.333c-183.971,0 -333.333,-149.362 -333.333,-333.333c0,-183.972 149.362,-333.334 333.333,-333.334Zm0,40c161.895,0 293.334,131.439 293.334,293.334c-0,161.895 -131.439,293.333 -293.334,293.333c-161.895,-0 -293.333,-131.438 -293.333,-293.333c0,-161.895 131.438,-293.334 293.333,-293.334Z" style="fill:#464646;"/><path d="M3333.33,3978.67c103.76,-0 188,84.24 188,188c0,103.76 -84.24,188 -188,188c-103.76,-0 -188,-84.24 -188,-188c0,-103.76 84.24,-188 188,-188Zm0,37.6c83.008,-0 150.4,67.392 150.4,150.4c0,83.008 -67.392,150.4 -150.4,150.4c-83.008,-0 -150.4,-67.392 -150.4,-150.4c0,-83.008 67.392,-150.4 150.4,-150.4Z" style="fill:#464646;"/><circle cx="2500" cy="2500" r="316.667" style="fill:#565352;"/><path d="M2632.91,2367.09l200.423,132.91l-71.886,206.698l-117.722,94.097l-143.725,32.538l-132.91,-200.423l207.381,39.74l100.586,-104.014l8.072,-111.301l-50.219,-90.245Z" style="fill-opacity:0.09;"/><path d="M2500,2166.67c183.972,-0 333.333,149.361 333.333,333.333c0,183.972 -149.361,333.333 -333.333,333.333c-183.972,0 -333.333,-149.361 -333.333,-333.333c-0,-183.972 149.361,-333.333 333.333,-333.333Zm0,40c161.895,-0 293.333,131.438 293.333,293.333c0,161.895 -131.438,293.333 -293.333,293.333c-161.895,0 -293.333,-131.438 -293.333,-293.333c-0,-161.895 131.438,-293.333 293.333,-293.333Z" style="fill:#464646;"/><path d="M2500,2312c103.76,0 188,84.24 188,188c0,103.76 -84.24,188 -188,188c-103.76,0 -188,-84.24 -188,-188c0,-103.76 84.24,-188 188,-188Zm0,37.6c83.008,-0 150.4,67.392 150.4,150.4c0,83.008 -67.392,150.4 -150.4,150.4c-83.008,0 -150.4,-67.392 -150.4,-150.4c-0,-83.008 67.392,-150.4 150.4,-150.4Z" style="fill:#464646;"/><circle cx="1666.67" cy="3333.33" r="316.667" style="fill:#565352;"/><path d="M1799.58,3200.42l200.423,132.91l-71.886,206.698l-117.722,94.098l-143.725,32.538l-132.91,-200.424l207.381,39.741l100.586,-104.014l8.072,-111.302l-50.219,-90.245Z" style="fill-opacity:0.09;"/><path d="M1666.67,3000c183.971,0 333.333,149.362 333.333,333.333c0,183.972 -149.362,333.334 -333.333,333.334c-183.972,-0 -333.334,-149.362 -333.334,-333.334c0,-183.971 149.362,-333.333 333.334,-333.333Zm-0,40c161.895,0 293.333,131.438 293.333,293.333c-0,161.895 -131.438,293.334 -293.333,293.334c-161.895,-0 -293.334,-131.439 -293.334,-293.334c0,-161.895 131.439,-293.333 293.334,-293.333Z" style="fill:#464646;"/><path d="M1666.67,3145.33c103.76,0 188,84.24 188,188c-0,103.76 -84.24,188 -188,188c-103.76,0 -188,-84.24 -188,-188c-0,-103.76 84.24,-188 188,-188Zm-0,37.6c83.008,0 150.4,67.392 150.4,150.4c-0,83.008 -67.392,150.4 -150.4,150.4c-83.008,0 -150.4,-67.392 -150.4,-150.4c-0,-83.008 67.392,-150.4 150.4,-150.4Z" style="fill:#464646;"/><circle cx="833.333" cy="833.333" r="316.667" style="fill:#565352;"/><path d="M966.243,700.423l200.424,132.91l-71.887,206.698l-117.722,94.098l-143.725,32.538l-132.91,-200.424l207.382,39.741l100.585,-104.014l8.073,-111.302l-50.22,-90.245Z" style="fill-opacity:0.09;"/><path d="M833.333,500c183.972,0 333.334,149.362 333.334,333.333c-0,183.972 -149.362,333.334 -333.334,333.334c-183.971,-0 -333.333,-149.362 -333.333,-333.334c0,-183.971 149.362,-333.333 333.333,-333.333Zm0,40c161.895,0 293.334,131.438 293.334,293.333c-0,161.895 -131.439,293.334 -293.334,293.334c-161.895,-0 -293.333,-131.439 -293.333,-293.334c0,-161.895 131.438,-293.333 293.333,-293.333Z" style="fill:#464646;"/><path d="M833.333,645.333c103.76,0 188,84.24 188,188c0,103.76 -84.24,188 -188,188c-103.76,0 -188,-84.24 -188,-188c0,-103.76 84.24,-188 188,-188Zm0,37.6c83.008,0 150.4,67.392 150.4,150.4c0,83.008 -67.392,150.4 -150.4,150.4c-83.008,0 -150.4,-67.392 -150.4,-150.4c0,-83.008 67.392,-150.4 150.4,-150.4Z" style="fill:#464646;"/><circle cx="5833.33" cy="5833.33" r="316.667" style="fill:#565352;"/><path d="M5966.24,5700.42l200.424,132.91l-71.887,206.698l-117.722,94.098l-143.725,32.538l-132.91,-200.424l207.382,39.741l100.585,-104.014l8.073,-111.302l-50.22,-90.245Z" style="fill-opacity:0.09;"/><path d="M5833.33,5500c183.972,0 333.334,149.362 333.334,333.333c-0,183.972 -149.362,333.334 -333.334,333.334c-183.971,-0 -333.333,-149.362 -333.333,-333.334c-0,-183.971 149.362,-333.333 333.333,-333.333Zm0,40c161.895,0 293.334,131.438 293.334,293.333c-0,161.895 -131.439,293.334 -293.334,293.334c-161.895,-0 -293.333,-131.439 -293.333,-293.334c0,-161.895 131.438,-293.333 293.333,-293.333Z" style="fill:#464646;"/><path d="M5833.33,5645.33c103.76,0 188,84.24 188,188c0,103.76 -84.24,188 -188,188c-103.76,0 -188,-84.24 -188,-188c0,-103.76 84.24,-188 188,-188Zm0,37.6c83.008,0 150.4,67.392 150.4,150.4c0,83.008 -67.392,150.4 -150.4,150.4c-83.008,0 -150.4,-67.392 -150.4,-150.4c0,-83.008 67.392,-150.4 150.4,-150.4Z" style="fill:#464646;"/><circle cx="5000" cy="5000" r="316.667" style="fill:#565352;"/><path d="M5132.91,4867.09l200.423,132.91l-71.886,206.698l-117.722,94.097l-143.725,32.538l-132.91,-200.423l207.381,39.74l100.586,-104.014l8.072,-111.301l-50.219,-90.245Z" style="fill-opacity:0.09;"/><path d="M5000,4666.67c183.972,-0 333.333,149.361 333.333,333.333c0,183.972 -149.361,333.333 -333.333,333.333c-183.972,0 -333.333,-149.361 -333.333,-333.333c-0,-183.972 149.361,-333.333 333.333,-333.333Zm0,40c161.895,-0 293.333,131.438 293.333,293.333c0,161.895 -131.438,293.333 -293.333,293.333c-161.895,0 -293.333,-131.438 -293.333,-293.333c-0,-161.895 131.438,-293.333 293.333,-293.333Z" style="fill:#464646;"/><path d="M5000,4812c103.76,0 188,84.24 188,188c0,103.76 -84.24,188 -188,188c-103.76,0 -188,-84.24 -188,-188c0,-103.76 84.24,-188 188,-188Zm0,37.6c83.008,-0 150.4,67.392 150.4,150.4c0,83.008 -67.392,150.4 -150.4,150.4c-83.008,0 -150.4,-67.392 -150.4,-150.4c-0,-83.008 67.392,-150.4 150.4,-150.4Z" style="fill:#464646;"/><circle cx="5833.33" cy="833.333" r="316.667" style="fill:#565352;"/><path d="M5966.24,700.423l200.424,132.91l-71.887,206.698l-117.722,94.098l-143.725,32.538l-132.91,-200.424l207.382,39.741l100.585,-104.014l8.073,-111.302l-50.22,-90.245Z" style="fill-opacity:0.09;"/><path d="M5833.33,500c183.972,0 333.334,149.362 333.334,333.333c-0,183.972 -149.362,333.334 -333.334,333.334c-183.971,-0 -333.333,-149.362 -333.333,-333.334c0,-183.971 149.362,-333.333 333.333,-333.333Zm0,40c161.895,0 293.334,131.438 293.334,293.333c-0,161.895 -131.439,293.334 -293.334,293.334c-161.895,-0 -293.333,-131.439 -293.333,-293.334c0,-161.895 131.438,-293.333 293.333,-293.333Z" style="fill:#464646;"/><path d="M5833.33,645.333c103.76,0 188,84.24 188,188c0,103.76 -84.24,188 -188,188c-103.76,0 -188,-84.24 -188,-188c0,-103.76 84.24,-188 188,-188Zm0,37.6c83.008,0 150.4,67.392 150.4,150.4c0,83.008 -67.392,150.4 -150.4,150.4c-83.008,0 -150.4,-67.392 -150.4,-150.4c0,-83.008 67.392,-150.4 150.4,-150.4Z" style="fill:#464646;"/><circle cx="1666.67" cy="5000" r="316.667" style="fill:#565352;"/><path d="M1799.58,4867.09l200.423,132.91l-71.886,206.698l-117.722,94.097l-143.725,32.538l-132.91,-200.423l207.381,39.74l100.586,-104.014l8.072,-111.301l-50.219,-90.245Z" style="fill-opacity:0.09;"/><path d="M1666.67,4666.67c183.971,-0 333.333,149.361 333.333,333.333c0,183.972 -149.362,333.333 -333.333,333.333c-183.972,0 -333.334,-149.361 -333.334,-333.333c0,-183.972 149.362,-333.333 333.334,-333.333Zm-0,40c161.895,-0 293.333,131.438 293.333,293.333c-0,161.895 -131.438,293.333 -293.333,293.333c-161.895,0 -293.334,-131.438 -293.334,-293.333c0,-161.895 131.439,-293.333 293.334,-293.333Z" style="fill:#464646;"/><path d="M1666.67,4812c103.76,0 188,84.24 188,188c-0,103.76 -84.24,188 -188,188c-103.76,0 -188,-84.24 -188,-188c-0,-103.76 84.24,-188 188,-188Zm-0,37.6c83.008,-0 150.4,67.392 150.4,150.4c-0,83.008 -67.392,150.4 -150.4,150.4c-83.008,0 -150.4,-67.392 -150.4,-150.4c-0,-83.008 67.392,-150.4 150.4,-150.4Z" style="fill:#464646;"/><circle cx="833.333" cy="5833.33" r="316.667" style="fill:#f8f8f8;"/><path d="M966.243,5700.42l200.424,132.91l-71.887,206.698l-117.722,94.098l-143.725,32.538l-132.91,-200.424l207.382,39.741l100.585,-104.014l8.073,-111.302l-50.22,-90.245Z" style="fill:#d3d3d3;"/><path d="M833.333,5500c183.972,-0 333.334,149.362 333.334,333.333c-0,183.972 -149.362,333.334 -333.334,333.334c-183.971,-0 -333.333,-149.362 -333.333,-333.334c0,-183.971 149.362,-333.333 333.333,-333.333Zm0,40c161.895,0 293.334,131.438 293.334,293.333c-0,161.895 -131.439,293.334 -293.334,293.334c-161.895,-0 -293.333,-131.439 -293.333,-293.334c0,-161.895 131.438,-293.333 293.333,-293.333Z" style="fill:#464646;"/><path d="M833.333,5645.33c103.76,0 188,84.24 188,188c0,103.76 -84.24,188 -188,188c-103.76,0 -188,-84.24 -188,-188c0,-103.76 84.24,-188 188,-188Zm0,37.6c83.008,0 150.4,67.392 150.4,150.4c0,83.008 -67.392,150.4 -150.4,150.4c-83.008,0 -150.4,-67.392 -150.4,-150.4c0,-83.008 67.392,-150.4 150.4,-150.4Z" style="fill:#464646;"/><circle cx="833.333" cy="3333.33" r="316.667" style="fill:#f8f8f8;"/><path d="M966.243,3200.42l200.424,132.91l-71.887,206.698l-117.722,94.098l-143.725,32.538l-132.91,-200.424l207.382,39.741l100.585,-104.014l8.073,-111.302l-50.22,-90.245Z" style="fill:#d3d3d3;"/><path d="M833.333,3000c183.972,0 333.334,149.362 333.334,333.333c-0,183.972 -149.362,333.334 -333.334,333.334c-183.971,-0 -333.333,-149.362 -333.333,-333.334c0,-183.971 149.362,-333.333 333.333,-333.333Zm0,40c161.895,0 293.334,131.438 293.334,293.333c-0,161.895 -131.439,293.334 -293.334,293.334c-161.895,-0 -293.333,-131.439 -293.333,-293.334c0,-161.895 131.438,-293.333 293.333,-293.333Z" style="fill:#464646;"/><path d="M833.333,3145.33c103.76,0 188,84.24 188,188c0,103.76 -84.24,188 -188,188c-103.76,0 -188,-84.24 -188,-188c0,-103.76 84.24,-188 188,-188Zm0,37.6c83.008,0 150.4,67.392 150.4,150.4c0,83.008 -67.392,150.4 -150.4,150.4c-83.008,0 -150.4,-67.392 -150.4,-150.4c0,-83.008 67.392,-150.4 150.4,-150.4Z" style="fill:#464646;"/><circle cx="3333.33" cy="1666.67" r="316.667" style="fill:#f8f8f8;"/><path d="M3466.24,1533.76l200.424,132.91l-71.887,206.697l-117.722,94.098l-143.725,32.538l-132.91,-200.423l207.382,39.74l100.585,-104.014l8.073,-111.301l-50.22,-90.245Z" style="fill:#d3d3d3;"/><path d="M3333.33,1333.33c183.972,0 333.334,149.362 333.334,333.334c-0,183.971 -149.362,333.333 -333.334,333.333c-183.971,0 -333.333,-149.362 -333.333,-333.333c0,-183.972 149.362,-333.334 333.333,-333.334Zm0,40c161.895,0 293.334,131.439 293.334,293.334c-0,161.895 -131.439,293.333 -293.334,293.333c-161.895,-0 -293.333,-131.438 -293.333,-293.333c0,-161.895 131.438,-293.334 293.333,-293.334Z" style="fill:#464646;"/><path d="M3333.33,1478.67c103.76,-0 188,84.24 188,188c0,103.76 -84.24,188 -188,188c-103.76,-0 -188,-84.24 -188,-188c0,-103.76 84.24,-188 188,-188Zm0,37.6c83.008,-0 150.4,67.392 150.4,150.4c0,83.008 -67.392,150.4 -150.4,150.4c-83.008,-0 -150.4,-67.392 -150.4,-150.4c0,-83.008 67.392,-150.4 150.4,-150.4Z" style="fill:#464646;"/><circle cx="3333.33" cy="5000" r="316.667" style="fill:#f8f8f8;"/><path d="M3466.24,4867.09l200.424,132.91l-71.887,206.698l-117.722,94.097l-143.725,32.538l-132.91,-200.423l207.382,39.74l100.585,-104.014l8.073,-111.301l-50.22,-90.245Z" style="fill:#d3d3d3;"/><path d="M3333.33,4666.67c183.972,-0 333.334,149.361 333.334,333.333c-0,183.972 -149.362,333.333 -333.334,333.333c-183.971,0 -333.333,-149.361 -333.333,-333.333c0,-183.972 149.362,-333.333 333.333,-333.333Zm0,40c161.895,-0 293.334,131.438 293.334,293.333c-0,161.895 -131.439,293.333 -293.334,293.333c-161.895,0 -293.333,-131.438 -293.333,-293.333c0,-161.895 131.438,-293.333 293.333,-293.333Z" style="fill:#464646;"/><path d="M3333.33,4812c103.76,0 188,84.24 188,188c0,103.76 -84.24,188 -188,188c-103.76,0 -188,-84.24 -188,-188c0,-103.76 84.24,-188 188,-188Zm0,37.6c83.008,-0 150.4,67.392 150.4,150.4c0,83.008 -67.392,150.4 -150.4,150.4c-83.008,0 -150.4,-67.392 -150.4,-150.4c0,-83.008 67.392,-150.4 150.4,-150.4Z" style="fill:#464646;"/><circle cx="2500" cy="4166.67" r="316.667" style="fill:#f8f8f8;"/><path d="M2632.91,4033.76l200.423,132.91l-71.886,206.697l-117.722,94.098l-143.725,32.538l-132.91,-200.423l207.381,39.74l100.586,-104.014l8.072,-111.301l-50.219,-90.245Z" style="fill:#d3d3d3;"/><path d="M2500,3833.33c183.972,0 333.333,149.362 333.333,333.334c0,183.971 -149.361,333.333 -333.333,333.333c-183.972,0 -333.333,-149.362 -333.333,-333.333c-0,-183.972 149.361,-333.334 333.333,-333.334Zm0,40c161.895,0 293.333,131.439 293.333,293.334c0,161.895 -131.438,293.333 -293.333,293.333c-161.895,-0 -293.333,-131.438 -293.333,-293.333c-0,-161.895 131.438,-293.334 293.333,-293.334Z" style="fill:#464646;"/><path d="M2500,3978.67c103.76,-0 188,84.24 188,188c0,103.76 -84.24,188 -188,188c-103.76,-0 -188,-84.24 -188,-188c0,-103.76 84.24,-188 188,-188Zm0,37.6c83.008,-0 150.4,67.392 150.4,150.4c0,83.008 -67.392,150.4 -150.4,150.4c-83.008,-0 -150.4,-67.392 -150.4,-150.4c-0,-83.008 67.392,-150.4 150.4,-150.4Z" style="fill:#464646;"/><circle cx="2500" cy="3333.33" r="316.667" style="fill:#f8f8f8;"/><path d="M2632.91,3200.42l200.423,132.91l-71.886,206.698l-117.722,94.098l-143.725,32.538l-132.91,-200.424l207.381,39.741l100.586,-104.014l8.072,-111.302l-50.219,-90.245Z" style="fill:#d3d3d3;"/><path d="M2500,3000c183.972,0 333.333,149.362 333.333,333.333c0,183.972 -149.361,333.334 -333.333,333.334c-183.972,-0 -333.333,-149.362 -333.333,-333.334c-0,-183.971 149.361,-333.333 333.333,-333.333Zm0,40c161.895,0 293.333,131.438 293.333,293.333c0,161.895 -131.438,293.334 -293.333,293.334c-161.895,-0 -293.333,-131.439 -293.333,-293.334c-0,-161.895 131.438,-293.333 293.333,-293.333Z" style="fill:#464646;"/><path d="M2500,3145.33c103.76,0 188,84.24 188,188c0,103.76 -84.24,188 -188,188c-103.76,0 -188,-84.24 -188,-188c0,-103.76 84.24,-188 188,-188Zm0,37.6c83.008,0 150.4,67.392 150.4,150.4c0,83.008 -67.392,150.4 -150.4,150.4c-83.008,0 -150.4,-67.392 -150.4,-150.4c-0,-83.008 67.392,-150.4 150.4,-150.4Z" style="fill:#464646;"/><circle cx="1666.67" cy="1666.67" r="316.667" style="fill:#f8f8f8;"/><path d="M1799.58,1533.76l200.423,132.91l-71.886,206.697l-117.722,94.098l-143.725,32.538l-132.91,-200.423l207.381,39.74l100.586,-104.014l8.072,-111.301l-50.219,-90.245Z" style="fill:#d3d3d3;"/><path d="M1666.67,1333.33c183.971,0 333.333,149.362 333.333,333.334c-0,183.971 -149.362,333.333 -333.333,333.333c-183.972,0 -333.334,-149.362 -333.334,-333.333c0,-183.972 149.362,-333.334 333.334,-333.334Zm-0,40c161.895,0 293.333,131.439 293.333,293.334c-0,161.895 -131.438,293.333 -293.333,293.333c-161.895,-0 -293.334,-131.438 -293.334,-293.333c0,-161.895 131.439,-293.334 293.334,-293.334Z" style="fill:#464646;"/><path d="M1666.67,1478.67c103.76,-0 188,84.24 188,188c-0,103.76 -84.24,188 -188,188c-103.76,-0 -188,-84.24 -188,-188c-0,-103.76 84.24,-188 188,-188Zm-0,37.6c83.008,-0 150.4,67.392 150.4,150.4c-0,83.008 -67.392,150.4 -150.4,150.4c-83.008,-0 -150.4,-67.392 -150.4,-150.4c-0,-83.008 67.392,-150.4 150.4,-150.4Z" style="fill:#464646;"/><circle cx="3333.33" cy="833.333" r="316.667" style="fill:#f8f8f8;"/><path d="M3466.24,700.423l200.424,132.91l-71.887,206.698l-117.722,94.098l-143.725,32.538l-132.91,-200.424l207.382,39.741l100.585,-104.014l8.073,-111.302l-50.22,-90.245Z" style="fill:#d3d3d3;"/><path d="M3333.33,500c183.972,0 333.334,149.362 333.334,333.333c-0,183.972 -149.362,333.334 -333.334,333.334c-183.971,-0 -333.333,-149.362 -333.333,-333.334c0,-183.971 149.362,-333.333 333.333,-333.333Zm0,40c161.895,0 293.334,131.438 293.334,293.333c-0,161.895 -131.439,293.334 -293.334,293.334c-161.895,-0 -293.333,-131.439 -293.333,-293.334c0,-161.895 131.438,-293.333 293.333,-293.333Z" style="fill:#464646;"/><path d="M3333.33,645.333c103.76,0 188,84.24 188,188c0,103.76 -84.24,188 -188,188c-103.76,0 -188,-84.24 -188,-188c0,-103.76 84.24,-188 188,-188Zm0,37.6c83.008,0 150.4,67.392 150.4,150.4c0,83.008 -67.392,150.4 -150.4,150.4c-83.008,0 -150.4,-67.392 -150.4,-150.4c0,-83.008 67.392,-150.4 150.4,-150.4Z" style="fill:#464646;"/><circle cx="5000" cy="3333.33" r="316.667" style="fill:#f8f8f8;"/><path d="M5132.91,3200.42l200.423,132.91l-71.886,206.698l-117.722,94.098l-143.725,32.538l-132.91,-200.424l207.381,39.741l100.586,-104.014l8.072,-111.302l-50.219,-90.245Z" style="fill:#d3d3d3;"/><path d="M5000,3000c183.972,0 333.333,149.362 333.333,333.333c0,183.972 -149.361,333.334 -333.333,333.334c-183.972,-0 -333.333,-149.362 -333.333,-333.334c-0,-183.971 149.361,-333.333 333.333,-333.333Zm0,40c161.895,0 293.333,131.438 293.333,293.333c0,161.895 -131.438,293.334 -293.333,293.334c-161.895,-0 -293.333,-131.439 -293.333,-293.334c-0,-161.895 131.438,-293.333 293.333,-293.333Z" style="fill:#464646;"/><path d="M5000,3145.33c103.76,0 188,84.24 188,188c0,103.76 -84.24,188 -188,188c-103.76,0 -188,-84.24 -188,-188c0,-103.76 84.24,-188 188,-188Zm0,37.6c83.008,0 150.4,67.392 150.4,150.4c0,83.008 -67.392,150.4 -150.4,150.4c-83.008,0 -150.4,-67.392 -150.4,-150.4c-0,-83.008 67.392,-150.4 150.4,-150.4Z" style="fill:#464646;"/></svg>