<?xml version="1.0" encoding="UTF-8" standalone="no"?><!DOCTYPE svg PUBLIC "-//W3C//DTD SVG 1.1//EN" "http://www.w3.org/Graphics/SVG/1.1/DTD/svg11.dtd"><svg width="100%" height="100%" viewBox="0 0 4167 4167" version="1.1" xmlns="http://www.w3.org/2000/svg" xmlns:xlink="http://www.w3.org/1999/xlink" xml:space="preserve" xmlns:serif="http://www.serif.com/" style="fill-rule:evenodd;clip-rule:evenodd;stroke-linejoin:round;stroke-miterlimit:2;"><circle cx="2083.33" cy="2083.33" r="1979.17" style="fill:#565352;"/><path d="M2914.02,1252.65l1252.65,830.687l-449.289,1291.86l-735.763,588.11l-898.282,203.363l-830.687,-1252.65l1296.13,248.377l628.661,-650.087l50.45,-695.635l-313.87,-564.03Z" style="fill-opacity:0.09;"/><path d="M2083.33,0c1149.82,0 2083.33,933.51 2083.33,2083.33c-0,1149.82 -933.511,2083.33 -2083.33,2083.33c-1149.82,-0 -2083.33,-933.511 -2083.33,-2083.33c0,-1149.82 933.51,-2083.33 2083.33,-2083.33Zm0,250c1011.85,0 1833.33,821.489 1833.33,1833.33c-0,1011.85 -821.489,1833.33 -1833.33,1833.33c-1011.84,-0 -1833.33,-821.489 -1833.33,-1833.33c0,-1011.84 821.489,-1833.33 1833.33,-1833.33Z" style="fill:#464646;"/><path d="M2083.33,908.333c648.5,0 1175,526.5 1175,1175c0,648.5 -526.5,1175 -1175,1175c-648.5,0 -1175,-526.5 -1175,-1175c0,-648.5 526.5,-1175 1175,-1175Zm0,235c518.8,0 940,421.2 940,940c0,518.8 -421.2,940 -940,940c-518.8,0 -940,-421.2 -940,-940c0,-518.8 421.2,-940 940,-940Z" style="fill:#464646;"/></svg>